<?xml version="1.0" encoding="utf-8" ?>
<svg xmlns="http://www.w3.org/2000/svg" xmlns:xlink="http://www.w3.org/1999/xlink" width="40" height="40" viewBox="0 0 40 40">
	<path transform="matrix(1 0 0 1 0 0)" d="M20 0C8.9543 0 0 8.9543 0 20L0 20.03C0 31.0757 8.92431 40 19.97 40L20 40C31.0457 40 40 31.0757 40 20.03L40 20C40 8.9543 31.0757 0 20.03 0L20 0Z" fill-rule="nonzero" fill="rgb(55, 65, 81)"/>
	<defs>
		<clipPath id="clipPath6534276066">
			<path transform="matrix(1 0 0 1 10 10)" d="M0 0L20 0L20 20L0 20L0 0Z" fill-rule="nonzero"/>
		</clipPath>
	</defs>
	<g clip-path="url(#clipPath6534276066)">
		<defs>
			<clipPath id="clipPath7358950127">
				<path transform="matrix(1 0 0 1 10 10)" d="M0 0L20 0L20 20L0 20L0 0Z" fill-rule="nonzero"/>
			</clipPath>
		</defs>
		<g clip-path="url(#clipPath7358950127)">
			<path transform="matrix(1 0 0 1 11.25 10.0004)" d="M3.91719 17.4996L0.289062 17.4996L0.289062 5.81602L3.91719 5.81602L3.91719 17.4996ZM2.10117 4.22227C0.941016 4.22227 0 3.26133 0 2.10117C0 1.52095 0.20514 1.0257 0.615419 0.615419C1.0257 0.20514 1.52095 0 2.10117 0C2.68139 0 3.17665 0.20514 3.58692 0.615419C3.9972 1.0257 4.20234 1.52095 4.20234 2.10117C4.20234 3.26133 3.26094 4.22227 2.10117 4.22227ZM17.4961 17.4996L13.8758 17.4996L13.8758 11.8121C13.8758 10.4566 13.8484 8.71836 11.9895 8.71836C10.1031 8.71836 9.81406 10.191 9.81406 11.7145L9.81406 17.4996L6.18984 17.4996L6.18984 5.81602L9.66953 5.81602L9.66953 7.40977L9.72031 7.40977C10.2047 6.4918 11.3879 5.52305 13.1531 5.52305C16.825 5.52305 17.5 7.94101 17.5 11.0816L17.5 17.4996L17.4961 17.4996Z" fill-rule="nonzero" fill="rgb(255, 255, 255)"/>
		</g>
	</g>
</svg>
