<?xml version="1.0" encoding="utf-8" ?>
<svg xmlns="http://www.w3.org/2000/svg" xmlns:xlink="http://www.w3.org/1999/xlink" width="27.0459" height="27.0344" viewBox="0 0 27.0459 27.0344">
	<path transform="matrix(1 0 0 1 -2.69413e-05 1.04904e-05)" d="M26.1744 8.81739C27.2822 11.7929 27.3338 14.7867 26.3293 17.7987C25.3248 20.8107 23.4865 23.1742 20.8143 24.8891C18.1422 26.604 15.2278 27.2908 12.0711 26.9494C8.91447 26.608 6.21429 25.314 3.97062 23.0674C1.43065 20.5358 0.109235 17.4776 0.00636578 13.893C-0.0965033 10.3083 1.04737 7.17941 3.43798 4.50631C5.82859 1.83321 8.81083 0.348415 12.3847 0.0519297C15.9586 -0.244555 19.1447 0.728513 21.9431 2.97113L24.4556 0.457385C24.7491 0.164283 25.1032 0.0177941 25.5179 0.0179181C25.9327 0.0180422 26.2867 0.164743 26.58 0.45802C26.8733 0.751298 27.02 1.10531 27.0201 1.52007C27.0202 1.93483 26.8737 2.28893 26.5806 2.58238L14.5806 14.5824C14.2873 14.8762 13.933 15.0231 13.5179 15.0233C13.1027 15.0235 12.7484 14.8768 12.4548 14.5832C12.1612 14.2896 12.0145 13.9353 12.0147 13.5201C12.0149 13.105 12.1618 12.7507 12.4556 12.4574L15.4556 9.45739C14.269 8.89045 13.0652 8.85123 11.8442 9.33974C10.6231 9.82824 9.77858 10.687 9.31045 11.9159C8.84232 13.1449 8.90155 14.3479 9.48814 15.5249C10.0747 16.702 10.9996 17.4736 12.2627 17.8398C13.5258 18.206 14.7199 18.0487 15.8451 17.3679C16.9703 16.6872 17.6638 15.7024 17.9256 14.4136C18.0077 14.0078 18.2212 13.6904 18.5661 13.4613C18.911 13.2323 19.2864 13.1586 19.6923 13.2404C20.0982 13.3222 20.4158 13.5354 20.6451 13.8801C20.8744 14.2249 20.9483 14.6002 20.8669 15.0061C20.4171 17.2218 19.2119 18.8925 17.2512 20.0182C15.2906 21.1439 13.2401 21.3425 11.0999 20.6139C8.95963 19.8854 7.45621 18.477 6.58962 16.3888C5.72303 14.3007 5.78748 12.2416 6.78295 10.2117C7.77842 8.18183 9.36696 6.87023 11.5486 6.27691C13.7302 5.6836 15.7642 6.01001 17.6506 7.25614L19.8044 5.10989C16.914 2.9513 13.7513 2.42263 10.3161 3.52389C6.88083 4.62514 4.61493 6.89413 3.51833 10.3308C2.42173 13.7675 2.95469 16.9296 5.1172 19.817C7.27971 22.7044 10.1642 24.1053 13.7706 24.0197C17.377 23.9341 20.1917 22.3979 22.2148 19.4112C24.2379 16.4245 24.6203 13.2407 23.3619 9.85989C23.2144 9.47066 23.2267 9.08659 23.3989 8.70765C23.5712 8.32872 23.8524 8.06684 24.2426 7.92202C24.6329 7.7772 25.0168 7.79221 25.3946 7.96705C25.7723 8.14188 26.0322 8.42616 26.1744 8.81739Z" fill-rule="nonzero" fill="rgb(59, 130, 246)"/>
</svg>
