<?xml version="1.0" encoding="utf-8" ?>
<svg xmlns="http://www.w3.org/2000/svg" xmlns:xlink="http://www.w3.org/1999/xlink" width="113.6719" height="32" viewBox="0 0 113.6719 32">
	<path transform="matrix(1 0 0 1 8 -5)" d="M1.68164 30L1.68164 13.2012L5.58984 13.2012L12.5508 24.6211L10.4883 24.6211L17.2559 13.2012L21.1699 13.2012L21.2168 30L16.8457 30L16.7988 19.8457L17.543 19.8457L12.4805 28.3418L10.3652 28.3418L5.16211 19.8457L6.07031 19.8457L6.07031 30L1.68164 30Z" fill-rule="nonzero" fill="rgb(59, 130, 246)"/>
	<path transform="matrix(1 0 0 1 8 -5)" d="M31.1752 30.2168Q28.8725 30.2168 27.1557 29.3438Q25.4389 28.4648 24.4897 26.9414Q23.5463 25.418 23.5463 23.4727Q23.5463 21.5273 24.4662 20.0039Q25.392 18.4805 27.0209 17.6309Q28.6557 16.7754 30.6948 16.7754Q32.6166 16.7754 34.1987 17.5547Q35.7866 18.334 36.7182 19.8457Q37.6557 21.3574 37.6557 23.5195Q37.6557 23.7598 37.6323 24.0762Q37.6088 24.3867 37.5854 24.6504L27.2905 24.6504L27.2905 22.248L35.1596 22.248L33.4311 22.9219Q33.4545 22.0312 33.103 21.3867Q32.7573 20.7363 32.1479 20.3789Q31.5385 20.0156 30.7182 20.0156Q29.9037 20.0156 29.2885 20.3789Q28.6791 20.7363 28.3393 21.3984Q28.0053 22.0547 28.0053 22.9453L28.0053 23.6426Q28.0053 24.5977 28.4037 25.2949Q28.8022 25.9922 29.5463 26.3672Q30.2905 26.7363 31.3217 26.7363Q32.2827 26.7363 32.9623 26.4609Q33.6479 26.1855 34.3217 25.6055L36.7182 28.1016Q35.7866 29.1387 34.4155 29.6777Q33.0502 30.2168 31.1752 30.2168Z" fill-rule="nonzero" fill="rgb(59, 130, 246)"/>
	<path transform="matrix(1 0 0 1 8 -5)" d="M45.5754 30.2168Q43.0793 30.2168 41.6848 28.9805Q40.2961 27.7441 40.2961 25.248L40.2961 14.0859L44.8547 14.0859L44.8547 25.2012Q44.8547 25.8984 45.2355 26.2969Q45.6223 26.6895 46.2258 26.6895Q47.0402 26.6895 47.6144 26.2793L48.7453 29.4727Q48.1652 29.8535 47.3273 30.0352Q46.4894 30.2168 45.5754 30.2168ZM38.3976 20.8828L38.3976 17.4727L47.8312 17.4727L47.8312 20.8828L38.3976 20.8828Z" fill-rule="nonzero" fill="rgb(59, 130, 246)"/>
	<path transform="matrix(1 0 0 1 8 -5)" d="M58.442 30L58.442 27.5742L58.1256 26.9766L58.1256 22.5117Q58.1256 21.4336 57.4635 20.8477Q56.8073 20.2559 55.3658 20.2559Q54.4342 20.2559 53.4733 20.5547Q52.5123 20.8535 51.8385 21.3867L50.3033 18.2871Q51.4108 17.5664 52.9576 17.1738Q54.5045 16.7754 56.0397 16.7754Q59.2096 16.7754 60.9498 18.2285Q62.6901 19.6816 62.6901 22.7754L62.6901 30L58.442 30ZM54.5983 30.2168Q53.0397 30.2168 51.9557 29.6895Q50.8776 29.1621 50.3151 28.248Q49.7526 27.334 49.7526 26.209Q49.7526 25.0078 50.3619 24.1348Q50.9772 23.2559 52.2487 22.7871Q53.5201 22.3184 55.5358 22.3184L58.6061 22.3184L58.6061 24.6973L56.1627 24.6973Q55.0553 24.6973 54.61 25.0605Q54.1705 25.418 54.1705 26.0156Q54.1705 26.6133 54.6217 26.9766Q55.0787 27.334 55.8698 27.334Q56.6139 27.334 57.2233 26.9648Q57.8385 26.5898 58.1256 25.8223L58.7526 27.5039Q58.3893 28.8457 57.3463 29.5312Q56.3033 30.2168 54.5983 30.2168Z" fill-rule="nonzero" fill="rgb(59, 130, 246)"/>
	<path transform="matrix(1 0 0 1 8 -5)" d="M70.2972 30.2168Q68.639 30.2168 67.0687 29.8359Q65.4984 29.4492 64.5374 28.8691L65.9026 25.752Q66.8167 26.3027 68.0413 26.6309Q69.2659 26.9531 70.4378 26.9531Q71.5921 26.9531 72.0374 26.7129Q72.4827 26.4727 72.4827 26.0625Q72.4827 25.6816 72.0609 25.5Q71.639 25.3184 70.9534 25.2246Q70.2737 25.1309 69.4534 25.0137Q68.639 24.8906 67.8128 24.6855Q66.9866 24.4805 66.3011 24.0645Q65.6155 23.6426 65.2054 22.9219Q64.8011 22.2012 64.8011 21.0938Q64.8011 19.8457 65.5335 18.8789Q66.2659 17.9062 67.678 17.3438Q69.096 16.7754 71.1351 16.7754Q72.5062 16.7754 73.9066 17.0508Q75.3128 17.3262 76.2737 17.8828L74.9026 20.9766Q73.9417 20.4258 72.9808 20.2207Q72.0257 20.0156 71.1585 20.0156Q70.0101 20.0156 69.5413 20.2793Q69.0726 20.543 69.0726 20.9297Q69.0726 21.3105 69.4769 21.5156Q69.887 21.7207 70.5726 21.832Q71.2581 21.9375 72.0726 22.0488Q72.887 22.1543 73.7132 22.3711Q74.5452 22.582 75.2249 23.0039Q75.9105 23.4258 76.3148 24.1348Q76.7249 24.8379 76.7249 25.9453Q76.7249 27.1465 75.9925 28.1074Q75.2659 29.0625 73.8362 29.6426Q72.4066 30.2168 70.2972 30.2168Z" fill-rule="nonzero" fill="rgb(59, 130, 246)"/>
	<path transform="matrix(1 0 0 1 8 -5)" d="M82.5814 30.334Q80.7357 30.334 79.2357 29.7012Q77.7357 29.0625 76.7513 27.8613L79.3412 24.791Q80.015 25.6582 80.7357 26.1035Q81.4564 26.543 82.2474 26.543Q84.3626 26.543 84.3626 24.0938L84.3626 16.8691L78.5501 16.8691L78.5501 13.2012L89.0619 13.2012L89.0619 23.8066Q89.0619 27.0938 87.4037 28.7168Q85.7513 30.334 82.5814 30.334Z" fill-rule="nonzero" fill="rgb(59, 130, 246)"/>
	<path transform="matrix(1 0 0 1 8 -5)" d="M100.01 30L100.01 27.5742L99.6935 26.9766L99.6935 22.5117Q99.6935 21.4336 99.0314 20.8477Q98.3751 20.2559 96.9337 20.2559Q96.0021 20.2559 95.0412 20.5547Q94.0802 20.8535 93.4064 21.3867L91.8712 18.2871Q92.9787 17.5664 94.5255 17.1738Q96.0724 16.7754 97.6076 16.7754Q100.777 16.7754 102.518 18.2285Q104.258 19.6816 104.258 22.7754L104.258 30L100.01 30ZM96.1662 30.2168Q94.6076 30.2168 93.5236 29.6895Q92.4454 29.1621 91.8829 28.248Q91.3204 27.334 91.3204 26.209Q91.3204 25.0078 91.9298 24.1348Q92.5451 23.2559 93.8165 22.7871Q95.088 22.3184 97.1037 22.3184L100.174 22.3184L100.174 24.6973L97.7306 24.6973Q96.6232 24.6973 96.1779 25.0605Q95.7384 25.418 95.7384 26.0156Q95.7384 26.6133 96.1896 26.9766Q96.6466 27.334 97.4376 27.334Q98.1818 27.334 98.7912 26.9648Q99.4064 26.5898 99.6935 25.8223L100.32 27.5039Q99.9572 28.8457 98.9142 29.5312Q97.8712 30.2168 96.1662 30.2168ZM95.756 15.4336L98.9728 11.7832L103.531 11.7832L99.0197 15.4336L95.756 15.4336Z" fill-rule="nonzero" fill="rgb(59, 130, 246)"/>
</svg>
