<?xml version="1.0" encoding="utf-8" ?>
<svg xmlns="http://www.w3.org/2000/svg" xmlns:xlink="http://www.w3.org/1999/xlink" width="64" height="64" viewBox="0 0 64 64">
	<path transform="matrix(1 0 0 1 0 0)" d="M32 0C14.3269 0 0 14.3269 0 32L0 32.048C0 49.7211 14.2789 64 31.952 64L32 64C49.6731 64 64 49.7211 64 32.048L64 32C64 14.3269 49.7211 0 32.048 0L32 0Z" fill-rule="nonzero" fill="rgb(59, 130, 246)" fill-opacity="0.1"/>
	<defs>
		<clipPath id="clipPath4075881752">
			<path transform="matrix(1 0 0 1 16 16)" d="M0 0L32 0L32 32L0 32L0 0Z" fill-rule="nonzero"/>
		</clipPath>
	</defs>
	<g clip-path="url(#clipPath4075881752)">
		<defs>
			<clipPath id="clipPath5714137277">
				<path transform="matrix(1 0 0 1 16 16)" d="M0 0L32 0L32 32L0 32L0 0Z" fill-rule="nonzero"/>
			</clipPath>
		</defs>
		<g clip-path="url(#clipPath5714137277)">
			<path transform="matrix(1 0 0 1 16.0015 16.0047)" d="M31.1173 8.87656L28.236 11.7578C27.9423 12.0516 27.4673 12.0516 27.1735 11.7578L20.236 4.82031C19.9423 4.52656 19.9423 4.05156 20.236 3.75781L23.1173 0.876563C24.286 -0.292188 26.186 -0.292188 27.361 0.876563L31.1173 4.63281C32.2923 5.80156 32.2923 7.70156 31.1173 8.87656ZM17.761 6.23281L1.34852 22.6453L0.0235191 30.2391C-0.157731 31.2641 0.736019 32.1516 1.76102 31.9766L9.35477 30.6453L25.7673 14.2328C26.061 13.9391 26.061 13.4641 25.7673 13.1703L18.8298 6.23281C18.5298 5.93906 18.0548 5.93906 17.761 6.23281ZM7.75477 21.2391C7.41102 20.8953 7.41102 20.3453 7.75477 20.0016L17.3798 10.3766C17.7235 10.0328 18.2735 10.0328 18.6173 10.3766C18.961 10.7203 18.961 11.2703 18.6173 11.6141L8.99227 21.2391C8.64852 21.5828 8.09852 21.5828 7.75477 21.2391ZM5.49852 26.4953L8.49852 26.4953L8.49852 28.7641L4.46727 29.4703L2.52352 27.5266L3.22977 23.4953L5.49852 23.4953L5.49852 26.4953Z" fill-rule="nonzero" fill="rgb(59, 130, 246)"/>
		</g>
	</g>
</svg>
