<?xml version="1.0" encoding="utf-8" ?>
<svg xmlns="http://www.w3.org/2000/svg" xmlns:xlink="http://www.w3.org/1999/xlink" width="64" height="64" viewBox="0 0 64 64">
	<path transform="matrix(1 0 0 1 0 0)" d="M32 0C14.3269 0 0 14.3269 0 32L0 32.048C0 49.7211 14.2789 64 31.952 64L32 64C49.6731 64 64 49.7211 64 32.048L64 32C64 14.3269 49.7211 0 32.048 0L32 0Z" fill-rule="nonzero" fill="rgb(59, 130, 246)" fill-opacity="0.1"/>
	<defs>
		<clipPath id="clipPath2307932294">
			<path transform="matrix(1 0 0 1 16 16)" d="M0 0L32 0L32 32L0 32L0 0Z" fill-rule="nonzero"/>
		</clipPath>
	</defs>
	<g clip-path="url(#clipPath2307932294)">
		<defs>
			<clipPath id="clipPath3052679759">
				<path transform="matrix(1 0 0 1 16 16)" d="M0 0L32 0L32 32L0 32L0 0Z" fill-rule="nonzero"/>
			</clipPath>
		</defs>
		<g clip-path="url(#clipPath3052679759)">
			<path transform="matrix(1 0 0 1 19.9994 20.9994)" d="M24.0006 11.0006C24.0006 11.2767 23.9029 11.5124 23.7077 11.7077C23.5124 11.9029 23.2767 12.0006 23.0006 12.0006L12.0006 12.0006C11.7244 12.0006 11.4887 11.9029 11.2934 11.7077C11.0982 11.5124 11.0006 11.2767 11.0006 11.0006C11.0006 10.7244 11.0982 10.4887 11.2934 10.2934C11.4887 10.0982 11.7244 10.0006 12.0006 10.0006L23.0006 10.0006C23.2767 10.0006 23.5124 10.0982 23.7077 10.2934C23.9029 10.4887 24.0006 10.7244 24.0006 11.0006ZM12.0006 4.00056L23.0006 4.00056C23.2767 4.00056 23.5124 3.90292 23.7077 3.70766C23.9029 3.5124 24.0006 3.2767 24.0006 3.00056C24.0006 2.72441 23.9029 2.48871 23.7077 2.29345C23.5124 2.09819 23.2767 2.00056 23.0006 2.00056L12.0006 2.00056C11.7244 2.00056 11.4887 2.09819 11.2934 2.29345C11.0982 2.48871 11.0006 2.72441 11.0006 3.00056C11.0006 3.2767 11.0982 3.5124 11.2934 3.70766C11.4887 3.90292 11.7244 4.00056 12.0006 4.00056ZM23.0006 18.0006L12.0006 18.0006C11.7244 18.0006 11.4887 18.0982 11.2934 18.2934C11.0982 18.4887 11.0006 18.7244 11.0006 19.0006C11.0006 19.2767 11.0982 19.5124 11.2934 19.7077C11.4887 19.9029 11.7244 20.0006 12.0006 20.0006L23.0006 20.0006C23.2767 20.0006 23.5124 19.9029 23.7077 19.7077C23.9029 19.5124 24.0006 19.2767 24.0006 19.0006C24.0006 18.7244 23.9029 18.4887 23.7077 18.2934C23.5124 18.0982 23.2767 18.0006 23.0006 18.0006ZM6.29306 0.293056L3.00056 3.58681L1.70806 2.29306C1.51269 2.09769 1.27685 2 1.00056 2C0.72426 2 0.488427 2.09769 0.293056 2.29306C0.0976852 2.48843 -1.58946e-07 2.72426 0 3.00056C0 3.27685 0.0976855 3.51269 0.293056 3.70806L2.29306 5.70806C2.48836 5.90358 2.7242 6.00134 3.00056 6.00134C3.27692 6.00134 3.51275 5.90358 3.70806 5.70806L7.70806 1.70806C7.90343 1.51269 8.00111 1.27685 8.00112 1.00056C8.00111 0.72426 7.90343 0.488427 7.70806 0.293056C7.51269 0.0976849 7.27685 -3.17891e-07 7.00056 0C6.72426 0 6.48843 0.0976853 6.29306 0.293056ZM6.29306 8.29306L3.00056 11.5868L1.70806 10.2931C1.51264 10.0979 1.27686 10.0004 1.00072 10.0005C0.724571 10.0007 0.488867 10.0983 0.293602 10.2936C0.0983383 10.4889 0.00065279 10.7246 0.000545979 11.0007C0.000439485 11.2769 0.097943 11.5126 0.293056 11.7081L2.29306 13.7081C2.48836 13.9036 2.7242 14.0013 3.00056 14.0013C3.27692 14.0013 3.51275 13.9036 3.70806 13.7081L7.70806 9.70806C7.90343 9.51269 8.00111 9.27685 8.00111 9.00056C8.00111 8.72426 7.90343 8.48843 7.70806 8.29306C7.51269 8.09769 7.27685 8 7.00056 8C6.72426 8 6.48843 8.09768 6.29306 8.29306ZM6.29306 16.2931L3.00056 19.5868L1.70806 18.2931C1.51264 18.0979 1.27686 18.0004 1.00072 18.0005C0.724571 18.0007 0.488867 18.0983 0.293602 18.2936C0.0983383 18.4889 0.000652949 18.7246 0.000546455 19.0007C0.000439962 19.2769 0.0979433 19.5126 0.293056 19.7081L2.29306 21.7081C2.48836 21.9036 2.7242 22.0013 3.00056 22.0013C3.27692 22.0013 3.51275 21.9036 3.70806 21.7081L7.70806 17.7081C7.90343 17.5127 8.00111 17.2769 8.00112 17.0006C8.00112 16.7243 7.90343 16.4884 7.70806 16.2931C7.51269 16.0977 7.27685 16 7.00056 16C6.72426 16 6.48843 16.0977 6.29306 16.2931Z" fill-rule="nonzero" fill="rgb(59, 130, 246)"/>
		</g>
	</g>
</svg>
